<svg width="401" height="270" viewBox="0 0 401 270" fill="none" xmlns="http://www.w3.org/2000/svg">
<g clip-path="url(#clip0)">
<path d="M67.7101 179.86C68.7101 181.09 69.7101 182.56 69.3901 184.11C69.1633 184.957 68.6257 185.688 67.8845 186.157C67.1433 186.625 66.2528 186.798 65.3901 186.64C64.5383 186.448 63.7487 186.044 63.0949 185.466C62.441 184.887 61.944 184.152 61.6501 183.33C61.2601 182.33 61.1101 181.23 60.7201 180.21C59.6001 177.29 56.7201 175.5 54.0001 173.92C53.8301 176.92 55.5501 179.8 57.5901 182.06C59.6301 184.32 62.0401 186.25 63.8001 188.73C65.5601 191.21 66.5801 194.53 65.3701 197.32C65.2875 197.56 65.1384 197.772 64.9401 197.93C64.6378 198.105 64.2804 198.158 63.9401 198.08C60.7601 197.65 58.5901 194.66 57.1901 191.77C55.7901 188.88 54.6301 185.65 52.0601 183.77C53.1901 187.59 56.2601 190.54 57.8801 194.18C58.8976 196.538 59.2965 199.116 59.0393 201.671C58.7821 204.226 57.8771 206.673 56.4101 208.78C56.3058 208.971 56.163 209.137 55.9909 209.27C55.8188 209.402 55.621 209.498 55.4101 209.55C54.7901 209.61 54.3401 208.98 54.0801 208.41C51.4801 202.74 53.3901 195.08 48.8901 190.76C48.1901 192.27 47.5001 193.76 46.8001 195.3C46.4423 196.252 45.8868 197.118 45.1701 197.84C44.8015 198.194 44.3315 198.424 43.8259 198.497C43.3202 198.571 42.8042 198.484 42.3501 198.25C41.0201 197.4 41.3501 195.37 41.9501 193.89C43.4347 190.063 45.2691 186.38 47.4301 182.89C45.9201 182.18 44.4301 183.73 43.3001 184.99C42.1701 186.25 40.0901 187.35 39.0701 185.99C38.7685 185.539 38.6244 185.001 38.6601 184.46C38.6601 181.82 40.4701 179.54 42.3901 177.73C44.3101 175.92 46.4901 174.29 47.7701 171.98C46.3312 172.418 44.8007 172.46 43.3401 172.1C41.9301 171.61 40.8001 170 41.3401 168.62C43.0371 166.687 44.9194 164.926 46.9601 163.36C49.2501 162.63 51.4901 164.75 53.2301 166.01C58.6571 169.955 63.5276 174.614 67.7101 179.86Z" fill="#EBEBEB"/>
<path d="M55.0702 202.2C55.0702 201.44 55.0702 200.69 55.0702 199.93C54.8202 178.4 51.0702 170.36 50.0702 170.12L49.9702 169.12C50.1373 169.109 50.3049 169.133 50.4618 169.192C50.6187 169.251 50.7613 169.342 50.8802 169.46C52.8802 171.17 55.8802 180.7 56.1202 199.92C56.1202 200.67 56.1202 201.42 56.1202 202.17L55.0702 202.2Z" fill="#E0E0E0"/>
<path d="M55.0503 213.32C55.0503 212.68 55.0503 203.51 55.0503 200.06V198.71C55.0503 178.09 58.1903 167.85 60.3003 166C60.4186 165.878 60.5623 165.783 60.7213 165.723C60.8803 165.662 61.0507 165.637 61.2203 165.65L61.0903 166.65C60.0903 166.9 56.0903 175.54 56.0903 198.72V200.07C56.0903 203.52 56.0903 212.68 56.0903 213.31L55.0503 213.32Z" fill="#E0E0E0"/>
<path d="M69.1903 246.62H42.1703L39.5303 214.14H71.8303L69.1903 246.62Z" fill="#F0F0F0"/>
<path d="M73.9203 215.82H37.1703L36.5103 211.5H74.5803L73.9203 215.82Z" fill="#FAFAFA"/>
<path d="M19.5102 161.84C17.6502 161.79 15.5102 161.9 14.2902 163.27C13.6534 164.085 13.3445 165.108 13.4241 166.139C13.5036 167.169 13.966 168.133 14.7202 168.84C15.5093 169.513 16.4569 169.973 17.4735 170.178C18.4901 170.383 19.5421 170.325 20.5302 170.01C21.7702 169.67 22.9102 169.01 24.1502 168.67C27.7202 167.67 31.4802 169.12 34.9102 170.56C32.1502 172.89 28.2302 173.28 24.6302 172.96C21.0302 172.64 17.4802 171.72 13.8702 171.83C10.2602 171.94 6.39016 173.33 4.60016 176.47C4.4378 176.721 4.34467 177.011 4.33016 177.31C4.38347 177.724 4.59053 178.102 4.91016 178.37C7.59016 181.08 11.9702 181.01 15.7102 180.27C19.4502 179.53 23.3302 178.33 26.9902 179.4C22.5602 181.05 17.5802 180.24 12.9902 181.3C10.0269 182.018 7.29598 183.48 5.05601 185.549C2.81604 187.617 1.14121 190.223 0.190163 193.12C0.0888801 193.354 0.0366211 193.605 0.0366211 193.86C0.0366211 194.115 0.0888801 194.366 0.190163 194.6C0.570163 195.24 1.49016 195.22 2.19016 195.06C9.42016 193.48 15.3202 186.2 22.6302 187.38L19.8102 192.6C19.153 193.634 18.7266 194.797 18.5602 196.01C18.4788 196.617 18.5917 197.234 18.8827 197.773C19.1737 198.312 19.6279 198.745 20.1802 199.01C21.9402 199.67 23.6102 197.89 24.6002 196.29C27.18 192.139 29.3758 187.76 31.1602 183.21C32.9102 184.13 32.5302 186.69 32.1602 188.62C31.7902 190.55 32.1602 193.35 34.1602 193.38C34.8032 193.345 35.4159 193.095 35.9002 192.67C38.3802 190.76 39.2702 187.44 39.6202 184.34C39.9702 181.24 39.9602 177.99 41.2402 175.13C41.8383 176.8 42.8745 178.278 44.2402 179.41C45.7202 180.41 48.0502 180.32 48.9502 178.79C49.5775 175.803 49.9124 172.762 49.9502 169.71C48.9502 167.02 45.4002 166.41 42.9502 165.71C35.3487 163.362 27.4629 162.06 19.5102 161.84Z" fill="#F5F5F5"/>
<path d="M66.8202 196.49C67.6602 198.16 68.7402 199.96 70.5402 200.43C71.5599 200.613 72.611 200.406 73.4853 199.851C74.3596 199.295 74.9931 198.431 75.2602 197.43C75.4848 196.418 75.4484 195.366 75.1545 194.373C74.8607 193.379 74.3189 192.477 73.5802 191.75C72.6902 190.81 71.5802 190.1 70.7002 189.18C68.1202 186.5 67.7002 182.49 67.3202 178.79C70.6702 180.14 72.8502 183.41 74.2602 186.79C75.6702 190.17 76.5202 193.69 78.2602 196.79C80.0002 199.89 83.0902 202.69 86.7002 202.79C86.9985 202.822 87.2999 202.77 87.5702 202.64C87.9094 202.401 88.1481 202.045 88.2402 201.64C89.3702 197.99 87.2402 194.16 84.8502 191.2C82.4602 188.24 79.5602 185.38 78.7902 181.65C82.3302 184.79 83.9502 189.57 87.0502 193.14C89.0732 195.421 91.6452 197.147 94.5223 198.155C97.3994 199.163 100.486 199.419 103.49 198.9C103.744 198.886 103.992 198.818 104.218 198.7C104.444 198.583 104.642 198.42 104.8 198.22C105.19 197.59 104.74 196.78 104.26 196.22C99.4702 190.57 90.2602 188.77 87.8902 181.76H93.8202C95.0242 181.854 96.2344 181.69 97.3702 181.28C97.9343 181.064 98.4168 180.677 98.7503 180.173C99.0837 179.669 99.2515 179.074 99.2302 178.47C98.9802 176.6 96.6302 175.97 94.7502 175.84C89.8735 175.503 84.976 175.617 80.1202 176.18C80.1202 174.18 82.5502 173.34 84.4502 172.79C86.3502 172.24 88.6102 170.53 87.7002 168.79C87.3674 168.238 86.8609 167.813 86.2602 167.58C83.4102 166.29 80.0602 167.06 77.1502 168.2C74.2402 169.34 71.3902 170.88 68.2702 171.1C69.4585 169.771 70.2699 168.148 70.6202 166.4C70.7902 164.63 69.6202 162.61 67.8602 162.53C64.9318 163.387 62.0922 164.522 59.3802 165.92C57.4502 168.02 58.6002 171.49 59.0902 173.99C60.6365 181.805 63.237 189.375 66.8202 196.49Z" fill="#F0F0F0"/>
<path opacity="0.2" d="M225.25 19.57C225.25 19.92 225.25 20.26 225.25 20.57V46.48H189.69L187.8 44.69L189.69 19.57C189.69 14.8545 191.564 10.3321 194.898 6.99768C198.232 3.66328 202.755 1.79004 207.47 1.79004C212.186 1.79004 216.708 3.66328 220.043 6.99768C223.377 10.3321 225.25 14.8545 225.25 19.57Z" fill="black"/>
<path d="M223.36 17.78C223.36 18.12 223.36 18.47 223.36 18.78V44.69H187.8V17.78C187.8 15.4451 188.26 13.1331 189.154 10.9759C190.047 8.81872 191.357 6.85867 193.008 5.20764C194.659 3.55662 196.619 2.24695 198.776 1.35342C200.933 0.459893 203.245 0 205.58 0C207.915 0 210.227 0.459893 212.384 1.35342C214.542 2.24695 216.502 3.55662 218.153 5.20764C219.804 6.85867 221.113 8.81872 222.007 10.9759C222.9 13.1331 223.36 15.4451 223.36 17.78Z" fill="#F0F0F0"/>
<path d="M218.502 20.1814C219.605 13.3888 214.992 6.98851 208.2 5.88592C201.407 4.78333 195.007 9.39597 193.904 16.1885C192.802 22.9811 197.414 29.3814 204.207 30.484C210.999 31.5865 217.4 26.9739 218.502 20.1814Z" fill="#E0E0E0"/>
<path d="M204.75 30.42C211.632 30.42 217.21 24.8415 217.21 17.96C217.21 11.0785 211.632 5.5 204.75 5.5C197.869 5.5 192.29 11.0785 192.29 17.96C192.29 24.8415 197.869 30.42 204.75 30.42Z" fill="white"/>
<path d="M205.58 18.79C205.58 18.9878 205.521 19.1812 205.412 19.3456C205.302 19.5101 205.145 19.6382 204.963 19.7139C204.78 19.7896 204.579 19.8094 204.385 19.7708C204.191 19.7322 204.013 19.637 203.873 19.4971C203.733 19.3573 203.638 19.1791 203.599 18.9851C203.561 18.7911 203.581 18.5901 203.656 18.4074C203.732 18.2246 203.86 18.0685 204.024 17.9586C204.189 17.8487 204.382 17.79 204.58 17.79C204.845 17.79 205.1 17.8954 205.287 18.0829C205.475 18.2705 205.58 18.5248 205.58 18.79Z" fill="#E0E0E0"/>
<path d="M204.45 19.16L200.15 15.11L200.57 14.67L204.47 18.34L211.46 12.16L211.86 12.62L204.45 19.16Z" fill="#E0E0E0"/>
<path d="M88.29 136.01C83.06 137.01 73.29 137.65 62.06 137.65C50.83 137.65 41.06 137.01 35.83 136.01C35.5936 136.553 35.254 137.046 34.83 137.46C33.12 139.16 29.75 138.55 28.66 137.46C27.57 136.37 26.96 133 28.66 131.3C29.03 130.93 29.66 130.89 29.89 130.45C31.69 126.81 28.48 119.85 28.48 112.33C28.48 104.81 31.69 97.87 29.88 94.22C29.2 92.74 27.46 92.01 27.46 90.27C27.46 88.53 29.23 87.81 29.95 86.35C31.75 82.7 28.55 75.74 28.55 68.23C28.55 60.72 31.76 53.76 29.96 50.11C29.74 49.68 29.1 49.63 28.73 49.27C27.03 47.57 27.64 44.2 28.73 43.11C29.82 42.02 33.19 41.41 34.9 43.11C35.32 43.54 35.36 44.29 35.9 44.56C40.56 47.12 50.9 42.92 62.13 42.92C73.36 42.92 83.7 47.12 88.36 44.56C88.86 44.29 88.89 43.56 89.36 43.11C91.06 41.41 94.44 42.02 95.52 43.11C96.6 44.2 97.23 47.57 95.52 49.27C95.16 49.63 94.52 49.68 94.3 50.11C92.5 53.76 95.71 60.72 95.71 68.23C95.71 75.74 92.5 82.7 94.3 86.35C95.03 87.81 96.8 88.54 96.8 90.27C96.8 92 95.03 92.74 94.3 94.2C92.5 97.85 95.71 104.81 95.71 112.31C95.71 119.81 92.5 126.79 94.3 130.43C94.52 130.87 95.16 130.91 95.52 131.28C97.23 132.98 96.61 136.35 95.52 137.44C94.43 138.53 91.06 139.14 89.36 137.44C88.9065 137.044 88.5418 136.557 88.29 136.01Z" fill="#E0E0E0"/>
<path d="M90.2801 134.01C85.0501 135.01 75.2801 135.65 64.0501 135.65C52.8201 135.65 43.0501 134.99 37.8101 134.01C37.5812 134.558 37.2406 135.051 36.8101 135.46C35.1101 137.16 31.7401 136.55 30.6501 135.46C29.5601 134.37 28.9501 131 30.6501 129.3C31.0101 128.94 31.6501 128.89 31.8701 128.46C33.6701 124.81 30.4601 117.85 30.4601 110.34C30.4601 102.83 33.6701 95.87 31.8701 92.22C31.1501 90.76 29.3701 90.03 29.3701 88.3C29.3701 86.57 31.1501 85.83 31.8701 84.37C33.7101 80.71 30.4601 73.75 30.4601 66.24C30.4601 58.73 33.6701 51.77 31.8701 48.13C31.6601 47.69 31.0101 47.65 30.6501 47.28C28.9501 45.58 29.5601 42.21 30.6501 41.12C31.7401 40.03 35.1101 39.42 36.8101 41.12C37.2401 41.55 37.2701 42.3 37.8101 42.57C42.4801 45.13 52.8101 40.93 64.0501 40.93C75.2901 40.93 85.6101 45.13 90.2801 42.57C90.7801 42.3 90.8101 41.57 91.2801 41.12C92.9801 39.42 96.3501 40.03 97.4401 41.12C98.5301 42.21 99.1401 45.58 97.4401 47.28C97.0801 47.65 96.4401 47.69 96.2201 48.12C94.4201 51.77 97.6301 58.73 97.6301 66.24C97.6301 73.75 94.4201 80.71 96.2201 84.36C96.9401 85.82 98.7201 86.55 98.7201 88.29C98.7201 90.03 96.9401 90.75 96.2201 92.21C94.4201 95.86 97.6301 102.82 97.6301 110.33C97.6301 117.84 94.4201 124.8 96.2201 128.45C96.4401 128.88 97.0801 128.93 97.4401 129.29C99.1401 130.99 98.5301 134.36 97.4401 135.45C96.3501 136.54 92.9801 137.15 91.2801 135.45C90.8508 135.044 90.5103 134.554 90.2801 134.01Z" fill="#FAFAFA"/>
<path d="M37.79 127.41H90.29L90.29 49.16H37.79L37.79 127.41Z" fill="#EBEBEB"/>
<path d="M267.13 48.82C267.13 48.82 293.37 23.24 328.96 23.24C364.55 23.24 387.46 48.82 387.46 48.82V252.82H267.13V48.82Z" fill="#F5F5F5"/>
<path d="M384.46 49.8C369.199 35.0035 348.777 26.7289 327.52 26.7289C306.263 26.7289 285.841 35.0035 270.58 49.8V250.18H384.46V49.8ZM380.9 246.62H274.12V51.32C288.61 37.8052 307.686 30.2894 327.5 30.2894C347.314 30.2894 366.391 37.8052 380.88 51.32L380.9 246.62Z" fill="#E0E0E0"/>
<path d="M390.66 256.41H264.33V47.21L265.24 46.29C281.753 29.7834 304.146 20.5106 327.495 20.5106C350.844 20.5106 373.237 29.7834 389.75 46.29L390.66 47.21V256.41ZM270.56 250.18H384.46V49.8C369.199 35.0034 348.777 26.7288 327.52 26.7288C306.263 26.7288 285.841 35.0034 270.58 49.8L270.56 250.18Z" fill="#EBEBEB"/>
<path d="M344.4 29.86V46.14H310.59V29.86C308.49 30.31 306.41 30.86 304.37 31.44V46.14H276.71C275.06 47.48 273.44 48.88 271.89 50.37V52.37H304.37V113.65H271.89V119.87H304.37V181.46H271.89V187.69H304.37V248.84H310.59V187.69H344.4V248.84H350.63V187.69H383.1V181.46H350.63V119.87H383.1V113.65H350.63V52.37H383.1V50.37C381.55 48.88 379.94 47.48 378.29 46.14H350.63V31.44C348.58 30.83 346.46 30.31 344.4 29.86ZM344.4 181.46H310.59V119.87H344.4V181.46ZM344.4 113.65H310.59V52.37H344.4V113.65Z" fill="#E6E6E6"/>
<path d="M400.8 256.92H252.99V269.66H400.8V256.92Z" fill="#F0F0F0"/>
<path d="M330.06 204.16H64.5996L79.3196 35.87H344.79L330.06 204.16Z" fill="#407BFF"/>
<path d="M326.46 217.33H64.8098C63.0891 217.36 61.3816 217.023 59.8011 216.342C58.2206 215.661 56.8032 214.651 55.6434 213.38C54.4835 212.108 53.6077 210.604 53.0743 208.968C52.5409 207.332 52.3621 205.601 52.5498 203.89L67.1798 36.66C67.5595 33.0226 69.2549 29.6492 71.9472 27.1741C74.6396 24.6991 78.1434 23.2929 81.7998 23.22H343.39C345.111 23.1899 346.818 23.5265 348.399 24.2076C349.979 24.8887 351.396 25.8986 352.556 27.1701C353.716 28.4416 354.592 29.9455 355.125 31.5818C355.659 33.2181 355.838 34.9492 355.65 36.66L341.02 203.89C340.642 207.517 338.955 210.883 336.275 213.356C333.595 215.83 330.106 217.243 326.46 217.33Z" fill="#263238"/>
<path d="M326.45 204.16H75.6997L90.4297 35.87H341.17L326.45 204.16Z" fill="#407BFF"/>
<path d="M326.4 204.22H75.6699L90.3999 35.9399H341.12L326.4 204.22Z" fill="white"/>
<path d="M339.26 57.2699H88.5298L90.3998 35.9399H341.12L339.26 57.2699Z" fill="#407BFF"/>
<path d="M202.422 113.813C205.598 110.773 205.915 105.951 203.131 103.043C200.347 100.134 195.516 100.241 192.34 103.281C189.164 106.321 188.847 111.143 191.631 114.051C194.415 116.96 199.246 116.853 202.422 113.813Z" fill="#407BFF"/>
<path d="M103.054 145.493C106.219 142.46 106.533 137.651 103.755 134.752C100.977 131.853 96.1591 131.962 92.9939 134.996C89.8286 138.029 89.5147 142.838 92.2928 145.737C95.0708 148.636 99.8888 148.527 103.054 145.493Z" fill="#263238"/>
<path d="M179.35 156.01C179.138 158.074 178.177 159.988 176.65 161.392C175.123 162.796 173.134 163.592 171.06 163.63C170.084 163.647 169.116 163.456 168.22 163.07C167.324 162.684 166.521 162.112 165.863 161.391C165.205 160.67 164.709 159.817 164.407 158.889C164.105 157.961 164.003 156.98 164.11 156.01C164.322 153.946 165.283 152.032 166.81 150.628C168.337 149.224 170.326 148.428 172.4 148.39C173.376 148.373 174.344 148.564 175.24 148.95C176.136 149.336 176.94 149.908 177.597 150.629C178.255 151.35 178.751 152.203 179.053 153.131C179.356 154.059 179.457 155.04 179.35 156.01Z" fill="#407BFF"/>
<path d="M98.21 96.01L98.92 94.68C99.5114 95.0795 100.206 95.2984 100.92 95.31C101.67 95.31 101.98 95.1 102.01 94.79C102.1 93.79 98.4 94.52 98.61 92.14C98.71 91 99.72 90.06 101.61 90.06C102.402 90.0466 103.185 90.2396 103.88 90.62L103.21 91.97C102.686 91.6574 102.09 91.4852 101.48 91.47C100.72 91.47 100.42 91.73 100.39 92.05C100.31 93.05 104 92.29 103.8 94.65C103.7 95.77 102.68 96.72 100.8 96.72C99.8854 96.745 98.9839 96.4979 98.21 96.01Z" fill="#263238"/>
<path d="M128.7 96.56L128.97 93.17L127.09 95.93H126.28L124.88 93.26L124.59 96.56H122.92L123.48 90.16H124.97L126.89 93.86L129.41 90.16H130.9L130.36 96.56H128.7Z" fill="#263238"/>
<path d="M149.84 91.6H147.84L147.97 90.16H153.7L153.58 91.6H151.58L151.14 96.6H149.33L149.84 91.6Z" fill="#263238"/>
<path d="M182.54 90.16L179.91 96.56H177.97L177.09 92.67L175.46 96.56H173.52L172 90.16H173.87L174.8 94.25L176.51 90.16H178.17L179.1 94.29L180.81 90.16H182.54Z" fill="#263238"/>
<path d="M197.65 91.6H195.65L195.78 90.16H201.51L201.38 91.6H199.46L199.02 96.6H197.21L197.65 91.6Z" fill="#263238"/>
<path d="M222 91.56L221.88 92.97H224.71L224.58 94.37H221.76L221.57 96.56H219.76L220.32 90.16H225.32L225.19 91.56H222Z" fill="#263238"/>
<path d="M243.26 96.01L243.98 94.68C244.585 95.0888 245.299 95.3082 246.03 95.31C246.78 95.31 247.09 95.1 247.12 94.79C247.21 93.79 243.51 94.52 243.71 92.14C243.81 91 244.83 90.06 246.71 90.06C247.502 90.0466 248.284 90.2396 248.98 90.62L248.31 91.97C247.785 91.6586 247.19 91.4865 246.58 91.47C245.82 91.47 245.52 91.73 245.49 92.05C245.41 93.05 249.1 92.29 248.89 94.65C248.8 95.77 247.78 96.72 245.89 96.72C244.962 96.7499 244.046 96.5028 243.26 96.01Z" fill="#263238"/>
<path d="M149.64 105.92L149.08 112.32H147.27L147.71 107.32H146.52L146.64 105.92H149.64Z" fill="#263238"/>
<path d="M175.31 110.88L175.18 112.32H170.18L170.28 111.18L172.87 108.94C173.43 108.47 173.53 108.18 173.55 107.94C173.57 107.7 173.33 107.28 172.78 107.28C172.546 107.279 172.315 107.335 172.108 107.443C171.901 107.551 171.723 107.708 171.59 107.9L170.31 107.16C170.622 106.723 171.04 106.371 171.524 106.137C172.008 105.902 172.543 105.794 173.08 105.82C174.55 105.82 175.5 106.58 175.39 107.82C175.336 108.225 175.196 108.613 174.979 108.958C174.761 109.303 174.471 109.597 174.13 109.82L172.82 110.93L175.31 110.88Z" fill="#263238"/>
<path d="M199.25 110.31C199.15 111.4 198.25 112.44 196.25 112.44C195.397 112.458 194.556 112.24 193.82 111.81L194.6 110.45C195.108 110.801 195.712 110.986 196.33 110.98C196.94 110.98 197.33 110.74 197.4 110.31C197.47 109.88 197.17 109.69 196.48 109.69H195.72L195.82 108.55L197.07 107.32H194.56L194.69 105.92H199.31L199.21 107.05L197.76 108.48C197.978 108.501 198.19 108.566 198.384 108.669C198.577 108.773 198.748 108.914 198.887 109.084C199.025 109.254 199.129 109.45 199.191 109.661C199.253 109.871 199.273 110.092 199.25 110.31Z" fill="#263238"/>
<path d="M224.19 111.09H223.19L223.08 112.32H221.32L221.42 111.09H218.04L218.15 109.91L221.37 105.91H223.24L220.31 109.65H221.61L221.7 108.56H223.46L223.36 109.65H224.36L224.19 111.09Z" fill="#263238"/>
<path d="M247.16 110.26C247.06 111.4 246.11 112.44 244.16 112.44C243.31 112.46 242.472 112.241 241.74 111.81L242.51 110.45C243.018 110.801 243.622 110.986 244.24 110.98C244.85 110.98 245.24 110.74 245.32 110.31C245.4 109.88 245.11 109.66 244.13 109.66H242.46L243.1 105.92H247.18L247.06 107.32H244.46L244.3 108.25H244.73C246.6 108.25 247.26 109.13 247.16 110.26Z" fill="#263238"/>
<path d="M101.17 126.01C101.085 126.65 100.757 127.233 100.255 127.639C99.7524 128.044 99.1134 128.242 98.4697 128.19C96.6797 128.19 95.5997 127.11 95.7797 125.04C95.7873 124.565 95.89 124.096 96.0818 123.661C96.2736 123.226 96.5505 122.834 96.8963 122.507C97.2421 122.181 97.6498 121.927 98.0952 121.761C98.5406 121.595 99.0148 121.52 99.4897 121.54C100.134 121.515 100.773 121.675 101.33 122L100.56 123.3C100.232 123.093 99.8475 122.991 99.4597 123.01C99.0327 122.987 98.6132 123.129 98.2876 123.406C97.962 123.683 97.7552 124.075 97.7097 124.5C98.136 124.174 98.6633 124.007 99.1997 124.03C99.4639 124.012 99.7289 124.051 99.9766 124.145C100.224 124.238 100.449 124.383 100.636 124.571C100.823 124.759 100.967 124.984 101.059 125.233C101.151 125.481 101.189 125.746 101.17 126.01ZM99.4097 126.09C99.4229 125.981 99.4109 125.87 99.3747 125.767C99.3385 125.663 99.2791 125.569 99.2009 125.491C99.1227 125.414 99.0279 125.356 98.9237 125.321C98.8195 125.286 98.7087 125.276 98.5997 125.29C98.3668 125.273 98.1366 125.349 97.9589 125.501C97.7812 125.652 97.6701 125.867 97.6497 126.1C97.5997 126.57 97.9197 126.9 98.4697 126.9C98.5877 126.915 98.7076 126.907 98.8221 126.874C98.9366 126.842 99.0433 126.787 99.1358 126.712C99.2284 126.637 99.3048 126.544 99.3605 126.439C99.4161 126.334 99.4499 126.219 99.4597 126.1L99.4097 126.09Z" fill="#263238"/>
<path d="M125.59 121.68L125.49 122.81L122.78 128.07H120.78L123.37 123.07H121.69L121.6 124.07H120.06L120.27 121.65L125.59 121.68Z" fill="#263238"/>
<path d="M150.64 126.19C150.54 127.42 149.34 128.19 147.64 128.19C145.94 128.19 144.93 127.41 145.04 126.19C145.064 125.876 145.168 125.574 145.343 125.313C145.519 125.052 145.759 124.841 146.04 124.7C145.838 124.555 145.679 124.36 145.579 124.133C145.479 123.906 145.441 123.656 145.47 123.41C145.57 122.28 146.67 121.55 148.18 121.55C149.69 121.55 150.67 122.28 150.57 123.41C150.544 123.672 150.459 123.924 150.32 124.148C150.181 124.372 149.993 124.561 149.77 124.7C150.052 124.827 150.287 125.039 150.443 125.306C150.598 125.573 150.667 125.882 150.64 126.19ZM148.83 126.14C148.83 125.64 148.51 125.34 147.94 125.34C147.701 125.315 147.463 125.385 147.275 125.534C147.088 125.684 146.968 125.902 146.94 126.14C146.94 126.63 147.25 126.93 147.83 126.93C148.066 126.953 148.302 126.883 148.489 126.736C148.675 126.589 148.797 126.375 148.83 126.14ZM147.34 123.5C147.34 123.92 147.58 124.16 148.04 124.16C148.138 124.173 148.238 124.165 148.333 124.139C148.428 124.112 148.517 124.067 148.594 124.005C148.672 123.944 148.736 123.867 148.783 123.781C148.831 123.694 148.86 123.598 148.87 123.5C148.87 123.07 148.61 122.82 148.16 122.82C148.061 122.81 147.962 122.82 147.867 122.849C147.772 122.878 147.684 122.926 147.608 122.989C147.532 123.052 147.469 123.13 147.423 123.218C147.377 123.305 147.349 123.401 147.34 123.5Z" fill="#263238"/>
<path d="M174.46 124.7C174.452 125.176 174.349 125.646 174.157 126.082C173.964 126.517 173.686 126.91 173.34 127.236C172.993 127.563 172.584 127.816 172.137 127.982C171.691 128.147 171.215 128.221 170.74 128.2C170.098 128.223 169.464 128.064 168.91 127.74L169.68 126.44C170.017 126.672 170.421 126.787 170.83 126.77C171.253 126.788 171.667 126.646 171.99 126.371C172.313 126.097 172.52 125.711 172.57 125.29C172.144 125.608 171.621 125.771 171.09 125.75C170.821 125.773 170.551 125.737 170.298 125.644C170.045 125.552 169.815 125.405 169.625 125.215C169.434 125.024 169.288 124.795 169.195 124.541C169.103 124.288 169.067 124.018 169.09 123.75C169.175 123.112 169.501 122.53 170.001 122.125C170.501 121.719 171.138 121.521 171.78 121.57C173.57 121.55 174.65 122.63 174.46 124.7ZM172.59 123.64C172.59 123.17 172.32 122.84 171.77 122.84C171.538 122.823 171.309 122.899 171.133 123.051C170.956 123.203 170.848 123.418 170.83 123.65C170.815 123.76 170.826 123.872 170.861 123.977C170.896 124.082 170.956 124.177 171.034 124.256C171.112 124.334 171.208 124.393 171.313 124.429C171.418 124.464 171.53 124.475 171.64 124.46C171.757 124.47 171.874 124.456 171.986 124.42C172.098 124.384 172.201 124.326 172.29 124.25C172.379 124.173 172.453 124.08 172.506 123.976C172.559 123.871 172.591 123.757 172.6 123.64H172.59Z" fill="#263238"/>
<path d="M196.07 121.68L195.51 128.07H193.7L194.14 123.07H192.95L193.07 121.68H196.07Z" fill="#263238"/>
<path d="M196.75 124.88C196.93 122.76 198.23 121.55 199.87 121.55C201.51 121.55 202.57 122.76 202.39 124.88C202.21 127 200.91 128.2 199.28 128.2C197.65 128.2 196.57 127.01 196.75 124.88ZM200.57 124.88C200.69 123.53 200.31 123.03 199.74 123.03C199.17 123.03 198.69 123.53 198.57 124.88C198.45 126.23 198.83 126.72 199.41 126.72C199.99 126.72 200.46 126.22 200.57 124.88Z" fill="#263238"/>
<path d="M219.97 121.68L219.41 128.07H217.6L218.04 123.07H216.85L216.98 121.68H219.97Z" fill="#263238"/>
<path d="M223.68 121.68L223.12 128.07H221.31L221.75 123.07H220.56L220.68 121.68H223.68Z" fill="#263238"/>
<path d="M243.88 121.68L243.32 128.07H241.51L241.95 123.07H240.76L240.88 121.68H243.88Z" fill="#263238"/>
<path d="M249.35 126.64L249.22 128.07H244.22L244.32 126.94L246.91 124.7C247.47 124.23 247.57 123.93 247.59 123.7C247.59 123.29 247.37 123.04 246.82 123.04C246.586 123.039 246.355 123.095 246.148 123.203C245.941 123.311 245.763 123.468 245.63 123.66L244.35 122.91C244.665 122.476 245.083 122.127 245.566 121.895C246.05 121.662 246.584 121.554 247.12 121.58C248.59 121.58 249.54 122.34 249.43 123.58C249.377 123.985 249.237 124.373 249.019 124.718C248.802 125.064 248.512 125.358 248.17 125.58L246.86 126.7L249.35 126.64Z" fill="#263238"/>
<path d="M97.4598 137.43L96.8998 143.83H95.0898L95.5298 138.83H94.3398L94.4598 137.43H97.4598Z" fill="white"/>
<path d="M102.94 141.83C102.85 142.91 101.94 143.96 99.9398 143.96C99.087 143.979 98.2457 143.761 97.5098 143.33L98.2898 141.96C98.7953 142.308 99.3957 142.493 100.01 142.49C100.63 142.49 101.01 142.26 101.09 141.83C101.17 141.4 100.86 141.21 100.16 141.21H99.4598L99.5598 140.06L100.81 138.83H98.2598L98.3798 137.43H103.01L102.91 138.56L101.46 140.01C101.677 140.031 101.888 140.095 102.08 140.198C102.272 140.302 102.442 140.442 102.58 140.611C102.717 140.78 102.82 140.975 102.882 141.184C102.944 141.394 102.963 141.613 102.94 141.83Z" fill="white"/>
<path d="M121.76 137.43L121.2 143.83H119.39L119.82 138.83H118.64L118.76 137.43H121.76Z" fill="#263238"/>
<path d="M128.3 142.6H127.3L127.19 143.83H125.46L125.56 142.6H122.18L122.28 141.42L125.5 137.42H127.38L124.46 141.17H125.75L125.85 140.08H127.56L127.46 141.17H128.46L128.3 142.6Z" fill="#263238"/>
<path d="M146.88 137.43L146.32 143.83H144.51L144.95 138.83H143.76L143.88 137.43H146.88Z" fill="#263238"/>
<path d="M152.46 141.77C152.36 142.91 151.41 143.96 149.46 143.96C148.61 143.981 147.772 143.762 147.04 143.33L147.81 141.96C148.316 142.308 148.916 142.493 149.53 142.49C150.15 142.49 150.53 142.25 150.62 141.82C150.71 141.39 150.41 141.17 149.43 141.17H147.69L148.34 137.43H152.46L152.33 138.83H149.76L149.59 139.76H150.02C151.93 139.76 152.59 140.64 152.46 141.77Z" fill="#263238"/>
<path d="M170.78 137.43L170.22 143.83H168.46L168.89 138.83H167.66L167.79 137.43H170.78Z" fill="#263238"/>
<path d="M176.84 141.77C176.755 142.411 176.427 142.995 175.925 143.402C175.423 143.81 174.784 144.009 174.14 143.96C172.35 143.96 171.27 142.88 171.45 140.8C171.457 140.325 171.56 139.856 171.752 139.421C171.944 138.986 172.22 138.594 172.566 138.267C172.912 137.941 173.32 137.687 173.765 137.521C174.211 137.355 174.685 137.28 175.16 137.3C175.805 137.278 176.444 137.441 177 137.77L176.23 139.07C175.894 138.835 175.489 138.719 175.08 138.74C174.653 138.717 174.233 138.859 173.908 139.136C173.582 139.413 173.375 139.805 173.33 140.23C173.755 139.901 174.282 139.731 174.82 139.75C175.091 139.726 175.365 139.761 175.621 139.854C175.877 139.947 176.11 140.095 176.302 140.287C176.495 140.48 176.643 140.713 176.736 140.969C176.829 141.225 176.864 141.499 176.84 141.77ZM175.08 141.85C175.093 141.741 175.081 141.63 175.045 141.527C175.008 141.423 174.949 141.329 174.871 141.251C174.793 141.174 174.698 141.116 174.594 141.081C174.489 141.046 174.379 141.036 174.27 141.05C174.03 141.025 173.789 141.096 173.602 141.248C173.414 141.4 173.295 141.62 173.27 141.86C173.256 141.971 173.269 142.084 173.306 142.19C173.343 142.296 173.404 142.392 173.485 142.47C173.565 142.548 173.662 142.607 173.769 142.642C173.875 142.677 173.989 142.686 174.1 142.67C174.218 142.684 174.339 142.673 174.453 142.639C174.568 142.605 174.674 142.548 174.766 142.471C174.858 142.394 174.933 142.299 174.987 142.193C175.041 142.086 175.072 141.969 175.08 141.85Z" fill="#263238"/>
<path d="M194.69 137.43L194.13 143.83H192.32L192.76 138.83H191.57L191.69 137.43H194.69Z" fill="#263238"/>
<path d="M200.85 137.43L200.75 138.56L198.04 143.83H196.04L198.63 138.83H196.95L196.86 139.83H195.32L195.53 137.41L200.85 137.43Z" fill="#263238"/>
<path d="M218.59 137.43L218.04 143.83H216.23L216.66 138.83H215.46L215.59 137.43H218.59Z" fill="#263238"/>
<path d="M224.68 141.95C224.58 143.17 223.38 143.95 221.68 143.95C219.98 143.95 218.97 143.16 219.08 141.95C219.105 141.637 219.21 141.335 219.385 141.074C219.56 140.813 219.799 140.602 220.08 140.46C219.88 140.314 219.722 140.118 219.622 139.891C219.522 139.665 219.483 139.416 219.51 139.17C219.61 138.03 220.71 137.3 222.22 137.3C223.73 137.3 224.71 138.03 224.61 139.17C224.582 139.431 224.496 139.683 224.357 139.906C224.219 140.13 224.032 140.319 223.81 140.46C224.093 140.586 224.328 140.798 224.485 141.065C224.641 141.332 224.709 141.642 224.68 141.95ZM222.87 141.89C222.87 141.4 222.55 141.1 221.98 141.1C221.743 141.075 221.506 141.143 221.319 141.291C221.132 141.439 221.01 141.654 220.98 141.89C220.98 142.38 221.29 142.69 221.87 142.69C222.107 142.71 222.344 142.638 222.53 142.49C222.716 142.341 222.837 142.126 222.87 141.89ZM221.38 139.25C221.38 139.67 221.62 139.92 222.08 139.92C222.179 139.931 222.278 139.923 222.374 139.895C222.469 139.867 222.558 139.821 222.635 139.758C222.712 139.696 222.776 139.619 222.823 139.532C222.871 139.445 222.9 139.349 222.91 139.25C222.91 138.82 222.65 138.57 222.2 138.57C222.101 138.56 222.002 138.57 221.907 138.599C221.812 138.628 221.724 138.676 221.648 138.739C221.572 138.802 221.509 138.88 221.463 138.968C221.417 139.055 221.389 139.151 221.38 139.25Z" fill="#263238"/>
<path d="M242.46 137.43L241.9 143.83H240.09L240.53 138.83H239.34L239.46 137.43H242.46Z" fill="#263238"/>
<path d="M248.51 140.46C248.502 140.936 248.399 141.406 248.207 141.842C248.015 142.277 247.737 142.67 247.39 142.996C247.043 143.323 246.634 143.576 246.188 143.742C245.741 143.907 245.266 143.981 244.79 143.96C244.148 143.98 243.513 143.817 242.96 143.49L243.73 142.19C244.065 142.426 244.47 142.543 244.88 142.52C245.304 142.54 245.719 142.399 246.043 142.124C246.366 141.849 246.572 141.462 246.62 141.04C246.195 141.362 245.673 141.528 245.14 141.51C244.872 141.531 244.603 141.494 244.35 141.401C244.098 141.308 243.869 141.161 243.679 140.971C243.489 140.781 243.342 140.552 243.249 140.3C243.156 140.047 243.119 139.778 243.14 139.51C243.223 138.87 243.548 138.286 244.048 137.878C244.549 137.471 245.186 137.271 245.83 137.32C247.61 137.3 248.69 138.38 248.51 140.46ZM246.64 139.4C246.69 138.92 246.37 138.59 245.82 138.59C245.588 138.573 245.359 138.649 245.183 138.801C245.007 138.953 244.898 139.168 244.88 139.4C244.865 139.51 244.876 139.622 244.911 139.727C244.947 139.832 245.006 139.927 245.084 140.006C245.163 140.084 245.258 140.143 245.363 140.179C245.468 140.214 245.58 140.225 245.69 140.21C245.923 140.227 246.153 140.151 246.331 139.999C246.509 139.848 246.62 139.633 246.64 139.4Z" fill="#263238"/>
<path d="M97.83 158.15L97.71 159.58H92.71L92.81 158.45L95.46 156.21C96.02 155.74 96.12 155.44 96.14 155.21C96.16 154.98 95.92 154.55 95.37 154.55C95.1362 154.549 94.9057 154.605 94.6983 154.713C94.491 154.821 94.3131 154.978 94.18 155.17L92.9 154.42C93.2155 153.986 93.6338 153.638 94.1173 153.406C94.6007 153.174 95.1342 153.065 95.67 153.09C97.14 153.09 98.09 153.85 97.98 155.03C97.9272 155.435 97.7872 155.823 97.5696 156.168C97.3521 156.514 97.0622 156.808 96.72 157.03L95.41 158.15H97.83Z" fill="#263238"/>
<path d="M98.5098 156.38C98.6898 154.27 99.9898 153.06 101.63 153.06C103.27 153.06 104.33 154.27 104.15 156.38C103.97 158.49 102.67 159.71 101.04 159.71C99.4098 159.71 98.3298 158.5 98.5098 156.38ZM102.33 156.38C102.45 155.04 102.07 154.54 101.5 154.54C100.93 154.54 100.5 155.04 100.33 156.38C100.16 157.72 100.59 158.23 101.17 158.23C101.75 158.23 102.21 157.73 102.33 156.38Z" fill="#263238"/>
<path d="M122.15 158.15L122.02 159.58H117.02L117.12 158.45L119.71 156.21C120.26 155.74 120.36 155.44 120.38 155.21C120.4 154.98 120.17 154.55 119.62 154.55C119.385 154.547 119.152 154.603 118.943 154.711C118.734 154.819 118.554 154.976 118.42 155.17L117.14 154.42C117.456 153.987 117.875 153.639 118.358 153.407C118.841 153.175 119.374 153.066 119.91 153.09C121.38 153.09 122.33 153.85 122.23 155.03C122.175 155.435 122.033 155.824 121.814 156.169C121.594 156.514 121.303 156.808 120.96 157.03L119.66 158.15H122.15Z" fill="#263238"/>
<path d="M125.86 153.18L125.3 159.58H123.46L123.89 154.58H122.71L122.83 153.18H125.86Z" fill="#263238"/>
<path d="M147.27 158.15L147.14 159.58H142.14L142.24 158.45L144.83 156.21C145.39 155.74 145.49 155.44 145.51 155.21C145.53 154.98 145.29 154.55 144.74 154.55C144.506 154.549 144.275 154.605 144.068 154.713C143.861 154.821 143.683 154.978 143.55 155.17L142.27 154.42C142.585 153.986 143.003 153.638 143.487 153.406C143.97 153.174 144.504 153.065 145.04 153.09C146.51 153.09 147.46 153.85 147.35 155.03C147.297 155.435 147.157 155.823 146.939 156.168C146.722 156.514 146.432 156.808 146.09 157.03L144.78 158.15H147.27Z" fill="#263238"/>
<path d="M152.75 158.15L152.62 159.58H147.62L147.72 158.45L150.31 156.21C150.86 155.74 150.96 155.44 150.99 155.21C151.02 154.98 150.77 154.55 150.22 154.55C149.985 154.55 149.753 154.606 149.544 154.714C149.335 154.822 149.156 154.978 149.02 155.17L147.75 154.42C148.063 153.986 148.479 153.638 148.961 153.406C149.443 153.173 149.975 153.065 150.51 153.09C151.99 153.09 152.93 153.85 152.83 155.03C152.777 155.436 152.636 155.825 152.417 156.171C152.197 156.516 151.905 156.81 151.56 157.03L150.26 158.15H152.75Z" fill="#263238"/>
<path d="M171.17 158.15L171.05 159.58H166.05L166.15 158.45L168.74 156.21C169.29 155.74 169.39 155.44 169.41 155.21C169.43 154.98 169.2 154.55 168.65 154.55C168.414 154.547 168.182 154.603 167.973 154.711C167.763 154.819 167.584 154.976 167.45 155.17L166.17 154.42C166.486 153.987 166.904 153.639 167.388 153.407C167.871 153.175 168.404 153.066 168.94 153.09C170.41 153.09 171.36 153.85 171.26 155.03C171.205 155.435 171.063 155.824 170.843 156.169C170.624 156.514 170.333 156.808 169.99 157.03L168.69 158.15H171.17Z" fill="#263238"/>
<path d="M176.68 157.58C176.59 158.67 175.68 159.71 173.68 159.71C172.827 159.729 171.986 159.511 171.25 159.08L172.03 157.72C172.536 158.068 173.136 158.253 173.75 158.25C174.37 158.25 174.75 158.01 174.83 157.58C174.91 157.15 174.6 156.96 173.9 156.96H173.14L173.24 155.82L174.49 154.58H171.97L172.09 153.18H176.72L176.62 154.32L175.17 155.74C175.391 155.759 175.606 155.821 175.803 155.925C175.999 156.028 176.173 156.169 176.314 156.341C176.454 156.513 176.559 156.711 176.622 156.923C176.685 157.136 176.705 157.359 176.68 157.58Z" fill="#263238"/>
<path d="M195.08 158.15L194.95 159.58H189.95L190.05 158.45L192.64 156.21C193.2 155.74 193.3 155.44 193.32 155.21C193.34 154.98 193.1 154.55 192.55 154.55C192.316 154.549 192.085 154.605 191.878 154.713C191.671 154.821 191.493 154.978 191.36 155.17L190.08 154.42C190.395 153.986 190.813 153.637 191.296 153.405C191.78 153.172 192.314 153.064 192.85 153.09C194.32 153.09 195.27 153.85 195.16 155.03C195.107 155.435 194.967 155.823 194.749 156.168C194.532 156.514 194.242 156.808 193.9 157.03L192.59 158.15H195.08Z" fill="#263238"/>
<path d="M201.58 158.36H200.58L200.47 159.58H198.76L198.87 158.36H195.46L195.56 157.18L198.78 153.18H200.65L197.72 156.92H199.02L199.11 155.84H200.82L200.73 156.92H201.68L201.58 158.36Z" fill="#263238"/>
<path d="M218.98 158.15L218.86 159.58H213.86L213.96 158.45L216.55 156.21C217.1 155.74 217.2 155.44 217.22 155.21C217.24 154.98 217.01 154.55 216.46 154.55C216.224 154.547 215.992 154.603 215.783 154.711C215.573 154.819 215.394 154.976 215.26 155.17L213.98 154.42C214.296 153.987 214.714 153.639 215.198 153.407C215.681 153.175 216.214 153.066 216.75 153.09C218.22 153.09 219.17 153.85 219.07 155.03C219.015 155.435 218.873 155.824 218.653 156.169C218.434 156.514 218.143 156.808 217.8 157.03L216.5 158.15H218.98Z" fill="#263238"/>
<path d="M224.6 157.53C224.5 158.67 223.55 159.71 221.6 159.71C220.75 159.731 219.911 159.512 219.18 159.08L219.95 157.72C220.455 158.068 221.056 158.253 221.67 158.25C222.29 158.25 222.67 158 222.76 157.57C222.85 157.14 222.55 156.92 221.57 156.92H219.83L220.48 153.18H224.56L224.43 154.58H221.86L221.69 155.52H222.12C224.04 155.52 224.7 156.39 224.6 157.53Z" fill="#263238"/>
<path d="M242.89 158.15L242.76 159.58H237.76L237.86 158.45L240.46 156.21C241.02 155.74 241.11 155.44 241.14 155.21C241.17 154.98 240.92 154.55 240.37 154.55C240.136 154.549 239.905 154.605 239.698 154.713C239.491 154.821 239.313 154.978 239.18 155.17L237.9 154.42C238.215 153.986 238.633 153.637 239.116 153.405C239.6 153.172 240.134 153.064 240.67 153.09C242.14 153.09 243.09 153.85 242.98 155.03C242.927 155.435 242.787 155.823 242.569 156.168C242.352 156.514 242.062 156.808 241.72 157.03L240.46 158.15H242.89Z" fill="#263238"/>
<path d="M248.94 157.53C248.855 158.17 248.527 158.753 248.025 159.159C247.522 159.565 246.883 159.762 246.24 159.71C244.45 159.71 243.37 158.63 243.55 156.56C243.557 156.085 243.66 155.616 243.852 155.181C244.044 154.746 244.321 154.354 244.666 154.027C245.012 153.701 245.42 153.447 245.865 153.281C246.311 153.115 246.785 153.04 247.26 153.06C247.904 153.035 248.543 153.195 249.1 153.52L248.33 154.82C247.992 154.588 247.589 154.473 247.18 154.49C246.753 154.476 246.337 154.625 246.017 154.908C245.697 155.19 245.498 155.585 245.46 156.01C245.887 155.685 246.414 155.519 246.95 155.54C247.216 155.519 247.485 155.556 247.736 155.649C247.987 155.741 248.215 155.887 248.404 156.076C248.593 156.265 248.739 156.493 248.831 156.744C248.924 156.995 248.961 157.263 248.94 157.53ZM247.18 157.61C247.195 157.5 247.184 157.388 247.148 157.283C247.113 157.178 247.054 157.083 246.975 157.004C246.897 156.926 246.802 156.867 246.696 156.831C246.591 156.796 246.48 156.785 246.37 156.8C246.25 156.785 246.128 156.794 246.011 156.828C245.895 156.861 245.787 156.918 245.693 156.995C245.6 157.071 245.523 157.167 245.467 157.274C245.411 157.382 245.378 157.499 245.37 157.62C245.37 158.09 245.64 158.42 246.19 158.42C246.309 158.435 246.429 158.426 246.544 158.393C246.659 158.36 246.767 158.304 246.859 158.228C246.952 158.153 247.028 158.059 247.083 157.952C247.138 157.846 247.171 157.73 247.18 157.61Z" fill="#263238"/>
<path d="M96.4598 173.9L96.3398 175.34H91.3398L91.4398 174.21L94.0298 171.97C94.5798 171.49 94.6798 171.2 94.6998 170.97C94.7198 170.74 94.4798 170.32 93.9398 170.32C93.7044 170.317 93.4718 170.372 93.2626 170.481C93.0534 170.589 92.8739 170.746 92.7398 170.94L91.4598 170.19C91.7737 169.754 92.1913 169.403 92.675 169.169C93.1587 168.935 93.6931 168.825 94.2298 168.85C95.6998 168.85 96.6498 169.61 96.5398 170.8C96.4884 171.205 96.3489 171.594 96.1312 171.939C95.9136 172.285 95.623 172.579 95.2798 172.8L93.9698 173.91L96.4598 173.9Z" fill="#263238"/>
<path d="M102.61 168.94L102.51 170.07L99.7898 175.34H97.7898L100.38 170.34H98.6998L98.6098 171.34H97.0698L97.2798 168.92L102.61 168.94Z" fill="#263238"/>
<path d="M120.77 173.9L120.64 175.34H115.64L115.74 174.21L118.33 171.97C118.88 171.49 118.98 171.2 119.01 170.97C119.04 170.74 118.79 170.32 118.24 170.32C118.005 170.32 117.773 170.376 117.564 170.484C117.355 170.592 117.176 170.748 117.04 170.94L115.77 170.19C116.081 169.753 116.496 169.402 116.979 169.168C117.461 168.934 117.994 168.824 118.53 168.85C120.01 168.85 120.95 169.61 120.85 170.8C120.794 171.205 120.651 171.593 120.432 171.938C120.213 172.283 119.922 172.577 119.58 172.8L118.28 173.91L120.77 173.9Z" fill="#263238"/>
<path d="M126.86 173.46C126.75 174.68 125.56 175.46 123.86 175.46C122.16 175.46 121.15 174.67 121.25 173.46C121.277 173.147 121.382 172.846 121.557 172.586C121.732 172.325 121.971 172.113 122.25 171.97C122.047 171.827 121.887 171.631 121.786 171.404C121.686 171.177 121.649 170.927 121.68 170.68C121.77 169.54 122.88 168.81 124.39 168.81C125.9 168.81 126.87 169.54 126.78 170.68C126.754 170.942 126.669 171.194 126.53 171.418C126.391 171.642 126.203 171.831 125.98 171.97C126.262 172.098 126.497 172.31 126.655 172.576C126.812 172.843 126.884 173.151 126.86 173.46ZM125.05 173.4C125.05 172.91 124.73 172.61 124.16 172.61C123.923 172.585 123.686 172.653 123.499 172.801C123.312 172.948 123.19 173.164 123.16 173.4C123.16 173.89 123.47 174.2 124.05 174.2C124.287 174.22 124.524 174.148 124.71 174C124.896 173.851 125.018 173.636 125.05 173.4ZM123.56 170.76C123.56 171.18 123.8 171.43 124.26 171.43C124.359 171.441 124.458 171.433 124.554 171.405C124.649 171.377 124.738 171.331 124.815 171.268C124.892 171.206 124.956 171.129 125.003 171.042C125.051 170.955 125.08 170.859 125.09 170.76C125.09 170.33 124.82 170.08 124.38 170.08C124.281 170.07 124.182 170.08 124.087 170.109C123.993 170.138 123.905 170.186 123.828 170.249C123.752 170.312 123.689 170.39 123.643 170.478C123.597 170.565 123.569 170.661 123.56 170.76Z" fill="#263238"/>
<path d="M145.89 173.9L145.77 175.34H140.77L140.86 174.21L143.46 172.01C144.01 171.53 144.11 171.24 144.13 171.01C144.15 170.78 143.91 170.36 143.37 170.36C143.135 170.357 142.902 170.412 142.693 170.521C142.484 170.629 142.304 170.786 142.17 170.98L140.89 170.23C141.204 169.794 141.622 169.443 142.105 169.209C142.589 168.975 143.123 168.865 143.66 168.89C145.13 168.89 146.08 169.65 145.97 170.84C145.919 171.245 145.779 171.634 145.561 171.979C145.344 172.325 145.053 172.619 144.71 172.84L143.46 173.9H145.89Z" fill="#263238"/>
<path d="M151.91 172.01C151.902 172.486 151.799 172.956 151.607 173.392C151.415 173.827 151.137 174.22 150.79 174.546C150.443 174.873 150.034 175.126 149.587 175.292C149.141 175.457 148.666 175.531 148.19 175.51C147.548 175.531 146.913 175.367 146.36 175.04L147.13 173.74C147.465 173.976 147.87 174.093 148.28 174.07C148.704 174.091 149.119 173.949 149.442 173.674C149.766 173.399 149.972 173.012 150.02 172.59C149.594 172.909 149.072 173.075 148.54 173.06C148.271 173.083 148.001 173.047 147.748 172.954C147.495 172.862 147.266 172.715 147.075 172.525C146.885 172.334 146.738 172.105 146.646 171.852C146.553 171.599 146.517 171.328 146.54 171.06C146.623 170.42 146.948 169.836 147.448 169.429C147.949 169.021 148.586 168.821 149.23 168.87C151.01 168.81 152.09 169.89 151.91 172.01ZM150.04 170.95C150.053 170.84 150.041 170.728 150.004 170.623C149.967 170.518 149.907 170.423 149.828 170.344C149.749 170.266 149.653 170.207 149.548 170.172C149.442 170.136 149.33 170.126 149.22 170.14C149.104 170.132 148.988 170.147 148.878 170.183C148.768 170.22 148.667 170.279 148.579 170.355C148.492 170.431 148.421 170.524 148.369 170.627C148.318 170.731 148.287 170.844 148.28 170.96C148.28 171.45 148.56 171.76 149.08 171.76C149.199 171.768 149.318 171.753 149.431 171.714C149.544 171.676 149.648 171.615 149.738 171.536C149.827 171.457 149.9 171.361 149.952 171.253C150.004 171.146 150.034 171.029 150.04 170.91V170.95Z" fill="#263238"/>
<path d="M169.83 173.34C169.73 174.42 168.78 175.47 166.83 175.47C165.977 175.487 165.137 175.269 164.4 174.84L165.18 173.47C165.688 173.82 166.292 174.006 166.91 174C167.52 174 167.91 173.77 167.98 173.34C168.05 172.91 167.75 172.72 167.06 172.72H166.3L166.4 171.57L167.65 170.34H165.13L165.25 168.94H169.87L169.77 170.07L168.32 171.5C168.541 171.519 168.756 171.581 168.953 171.685C169.149 171.788 169.323 171.929 169.464 172.101C169.604 172.273 169.709 172.471 169.772 172.683C169.835 172.896 169.855 173.119 169.83 173.34Z" fill="#263238"/>
<path d="M170.52 172.14C170.71 170.03 172 168.81 173.64 168.81C175.28 168.81 176.34 170.03 176.16 172.14C175.98 174.25 174.68 175.47 173.05 175.47C171.42 175.47 170.34 174.25 170.52 172.14ZM174.34 172.14C174.46 170.8 174.08 170.29 173.51 170.29C172.94 170.29 172.46 170.8 172.34 172.14C172.22 173.48 172.6 173.99 173.18 173.99C173.76 173.99 174.22 173.48 174.34 172.14Z" fill="#263238"/>
<path d="M103.66 66.6801L100.28 70.1201L103.02 73.9201L103.66 66.6801Z" fill="#263238"/>
<path d="M252.06 66.6801L254.84 70.1201L251.43 73.9201L252.06 66.6801Z" fill="#263238"/>
<path d="M207.7 73.9201H147.03L147.66 66.6801H208.33L207.7 73.9201Z" fill="#263238"/>
<path d="M326.4 204.22H257.55L270.41 57.27H339.26L326.4 204.22Z" fill="#407BFF"/>
<g opacity="0.3">
<path opacity="0.3" d="M326.4 204.22H257.55L270.41 57.27H339.26L326.4 204.22Z" fill="black"/>
</g>
<g opacity="0.8">
<path opacity="0.8" d="M282.46 116.19H275.76C275.374 116.197 274.99 116.123 274.635 115.972C274.279 115.821 273.96 115.596 273.698 115.313C273.435 115.03 273.235 114.694 273.112 114.328C272.988 113.962 272.943 113.574 272.98 113.19L275.12 88.79C275.21 87.9737 275.595 87.2184 276.202 86.666C276.81 86.1136 277.599 85.8021 278.42 85.79H285.13C285.515 85.7842 285.898 85.8596 286.253 86.0113C286.607 86.163 286.926 86.3876 287.188 86.6705C287.45 86.9534 287.65 87.2883 287.774 87.6535C287.899 88.0186 287.945 88.4059 287.91 88.79L285.77 113.19C285.677 114.007 285.29 114.763 284.681 115.315C284.072 115.867 283.282 116.178 282.46 116.19Z" fill="white"/>
</g>
<path d="M282.46 103.33C282.36 104.42 281.46 105.46 279.46 105.46C278.607 105.478 277.766 105.26 277.03 104.83L277.81 103.47C278.318 103.821 278.922 104.006 279.54 104C280.15 104 280.54 103.76 280.61 103.33C280.68 102.9 280.38 102.71 279.69 102.71H278.93L279.03 101.57L280.28 100.33H277.75L277.88 98.9301H282.5L282.4 100.07L280.95 101.49C281.171 101.509 281.386 101.572 281.582 101.675C281.779 101.778 281.953 101.92 282.093 102.091C282.234 102.263 282.339 102.461 282.402 102.673C282.465 102.886 282.485 103.11 282.46 103.33Z" fill="#263238"/>
<path d="M324.01 116.19H291.24C290.854 116.197 290.47 116.123 290.115 115.972C289.759 115.821 289.44 115.596 289.178 115.313C288.915 115.03 288.715 114.694 288.592 114.328C288.468 113.962 288.423 113.574 288.46 113.19L290.59 88.79C290.684 87.9737 291.072 87.2195 291.681 86.6677C292.29 86.1159 293.078 85.804 293.9 85.79H326.68C327.065 85.784 327.447 85.8594 327.801 86.0112C328.156 86.163 328.474 86.3878 328.735 86.6709C328.997 86.954 329.195 87.2891 329.318 87.6542C329.442 88.0194 329.486 88.4064 329.45 88.79L327.32 113.19C327.225 114.006 326.838 114.76 326.229 115.312C325.62 115.864 324.831 116.176 324.01 116.19Z" fill="#407BFF"/>
<path d="M320.76 153.29H287.99C287.604 153.296 287.221 153.22 286.867 153.069C286.512 152.917 286.193 152.692 285.931 152.409C285.669 152.127 285.469 151.792 285.345 151.426C285.221 151.061 285.175 150.674 285.21 150.29L287.35 125.89C287.444 125.074 287.832 124.319 288.441 123.768C289.049 123.216 289.838 122.904 290.66 122.89H323.46C323.845 122.884 324.228 122.96 324.583 123.111C324.937 123.263 325.256 123.488 325.518 123.77C325.78 124.053 325.98 124.388 326.104 124.753C326.229 125.119 326.275 125.506 326.24 125.89L324.1 150.29C324.005 151.111 323.613 151.87 322.997 152.422C322.382 152.975 321.586 153.283 320.76 153.29Z" fill="#263238"/>
<path d="M317.52 190.39H284.74C284.355 190.396 283.972 190.321 283.618 190.169C283.264 190.017 282.946 189.792 282.684 189.509C282.423 189.226 282.224 188.891 282.101 188.526C281.978 188.161 281.933 187.774 281.97 187.39L284.1 162.99C284.194 162.174 284.582 161.42 285.191 160.868C285.8 160.316 286.588 160.004 287.41 159.99H320.18C320.566 159.983 320.949 160.057 321.305 160.208C321.66 160.359 321.98 160.584 322.242 160.867C322.505 161.15 322.704 161.486 322.828 161.852C322.952 162.218 322.997 162.606 322.96 162.99L320.82 187.39C320.73 188.206 320.345 188.962 319.737 189.514C319.13 190.066 318.341 190.378 317.52 190.39Z" fill="#407BFF"/>
<g opacity="0.8">
<path opacity="0.8" d="M279.23 153.29H272.52C272.134 153.296 271.752 153.221 271.398 153.069C271.044 152.917 270.726 152.692 270.464 152.409C270.203 152.126 270.004 151.791 269.881 151.426C269.758 151.061 269.713 150.674 269.75 150.29L271.88 125.89C271.974 125.074 272.362 124.319 272.971 123.768C273.58 123.216 274.368 122.904 275.19 122.89H281.9C282.285 122.884 282.667 122.959 283.021 123.111C283.376 123.263 283.694 123.488 283.955 123.771C284.217 124.054 284.415 124.389 284.538 124.754C284.662 125.119 284.706 125.506 284.67 125.89L282.54 150.29C282.445 151.106 282.058 151.86 281.449 152.412C280.84 152.964 280.051 153.276 279.23 153.29Z" fill="white"/>
</g>
<path d="M275.82 134.01L275.26 140.41H273.46L273.9 135.41H272.71L272.83 134.01H275.82Z" fill="#263238"/>
<path d="M281.32 138.41C281.23 139.5 280.32 140.54 278.32 140.54C277.467 140.559 276.626 140.341 275.89 139.91L276.66 138.55C277.171 138.894 277.773 139.078 278.39 139.08C279 139.08 279.39 138.84 279.46 138.41C279.53 137.98 279.24 137.79 278.54 137.79H277.78L277.88 136.65L279.13 135.41H276.61L276.73 134.01H281.36L281.26 135.15L279.81 136.57C280.031 136.589 280.246 136.651 280.442 136.755C280.639 136.858 280.813 137 280.953 137.171C281.094 137.343 281.199 137.541 281.262 137.753C281.325 137.966 281.344 138.189 281.32 138.41Z" fill="#263238"/>
<g opacity="0.8">
<path opacity="0.8" d="M275.98 190.39H269.28C268.894 190.397 268.51 190.323 268.155 190.172C267.799 190.021 267.48 189.796 267.218 189.513C266.955 189.23 266.755 188.894 266.632 188.528C266.508 188.162 266.463 187.775 266.5 187.39L268.63 162.99C268.724 162.174 269.112 161.42 269.721 160.868C270.33 160.316 271.118 160.004 271.94 159.99H278.65C279.035 159.984 279.418 160.06 279.773 160.211C280.127 160.363 280.446 160.588 280.708 160.871C280.97 161.153 281.17 161.488 281.294 161.854C281.419 162.219 281.465 162.606 281.43 162.99L279.29 187.39C279.195 188.206 278.808 188.961 278.199 189.512C277.59 190.064 276.801 190.376 275.98 190.39Z" fill="white"/>
</g>
<path d="M324.91 74.4301H283.53L284.21 66.6801H325.58L324.91 74.4301Z" fill="white"/>
<path d="M181.46 47.01C181.567 45.8838 182.101 44.8414 182.953 44.0972C183.805 43.3531 184.91 42.964 186.04 43.01C186.65 42.9728 187.259 43.0855 187.815 43.3383C188.371 43.591 188.857 43.9762 189.23 44.46L187.73 45.72C187.538 45.4388 187.28 45.2094 186.978 45.0523C186.676 44.8953 186.34 44.8154 186 44.82C185.399 44.8064 184.817 45.0294 184.38 45.441C183.942 45.8525 183.684 46.4196 183.66 47.02C183.61 47.2985 183.623 47.5849 183.699 47.8575C183.776 48.1301 183.913 48.3818 184.101 48.5936C184.288 48.8054 184.522 48.9719 184.783 49.0804C185.045 49.1889 185.327 49.2366 185.61 49.22C185.974 49.215 186.332 49.1311 186.66 48.974C186.988 48.8168 187.278 48.5903 187.51 48.31L188.78 49.57C188.343 50.0443 187.808 50.4185 187.212 50.6671C186.617 50.9156 185.975 51.0326 185.33 51.01C184.799 51.0553 184.265 50.9818 183.766 50.7948C183.267 50.6079 182.815 50.3122 182.445 49.9292C182.074 49.5462 181.794 49.0856 181.623 48.5806C181.453 48.0757 181.397 47.5392 181.46 47.01Z" fill="white"/>
<path d="M194.78 49.33H191.53L190.79 50.83H188.57L192.64 43.13H194.79L197.52 50.83H195.26L194.78 49.33ZM194.29 47.72L193.51 45.26L192.31 47.72H194.29Z" fill="white"/>
<path d="M198.81 43.13H200.99L200.47 49.13H204.14L203.99 50.86H198.14L198.81 43.13Z" fill="white"/>
<path d="M211.18 49.14L211.03 50.83H204.85L205.52 43.13H211.52L211.46 44.81H207.58L207.46 46.11H210.88L210.74 47.74H207.32L207.19 49.14H211.18Z" fill="white"/>
<path d="M220.24 43.13L219.57 50.83H217.77L214.77 46.72L214.41 50.83H212.28L212.95 43.13H214.75L217.75 47.23L218.11 43.13H220.24Z" fill="white"/>
<path d="M221.78 43.13H225.46C228.01 43.13 229.63 44.61 229.46 46.98C229.29 49.35 227.37 50.83 224.82 50.83H221.18L221.78 43.13ZM224.78 49.13C225.079 49.1559 225.38 49.121 225.665 49.0274C225.95 48.9337 226.213 48.7833 226.438 48.5852C226.663 48.387 226.846 48.1453 226.975 47.8746C227.104 47.6038 227.177 47.3097 227.19 47.01C227.236 46.7316 227.217 46.4463 227.135 46.1763C227.053 45.9064 226.909 45.6591 226.716 45.4538C226.522 45.2485 226.283 45.0908 226.019 44.993C225.754 44.8952 225.47 44.86 225.19 44.89H223.82L223.46 49.09L224.78 49.13Z" fill="white"/>
<path d="M235.37 49.33H232.12L231.38 50.83H229.16L233.23 43.13H235.38L238.11 50.83H235.85L235.37 49.33ZM234.88 47.72L234.1 45.26L232.9 47.72H234.88Z" fill="white"/>
<path d="M242.27 48.78H241.09L240.91 50.78H238.73L239.4 43.08H242.92C245.02 43.08 246.25 44.16 246.09 45.93C246.056 46.4545 245.878 46.9594 245.574 47.3884C245.27 47.8174 244.853 48.1538 244.37 48.36L245.82 50.78H243.46L242.27 48.78ZM242.64 44.84H241.46L241.26 47.1H242.46C243.37 47.1 243.85 46.68 243.91 45.98C243.97 45.28 243.54 44.84 242.64 44.84Z" fill="white"/>
<path d="M102.46 49.49H101.46C101.256 49.494 101.053 49.4545 100.866 49.3742C100.678 49.2939 100.51 49.1746 100.372 49.0243C100.233 48.8739 100.129 48.6959 100.065 48.5021C100.001 48.3083 99.9787 48.103 100 47.9L100.09 46.9C100.136 46.4701 100.337 46.0716 100.655 45.779C100.974 45.4864 101.388 45.3197 101.82 45.31H102.82C103.024 45.3077 103.226 45.3482 103.412 45.4291C103.599 45.5099 103.767 45.6292 103.905 45.7792C104.043 45.9292 104.147 46.1066 104.212 46.2997C104.276 46.4928 104.3 46.6973 104.28 46.9L104.19 47.9C104.146 48.3308 103.946 48.7305 103.627 49.0235C103.308 49.3165 102.893 49.4825 102.46 49.49Z" fill="white"/>
<path d="M108.76 49.49H107.76C107.556 49.4941 107.354 49.4547 107.167 49.3743C106.979 49.2939 106.811 49.1744 106.674 49.0239C106.537 48.8733 106.433 48.6951 106.37 48.5013C106.308 48.3075 106.287 48.1025 106.31 47.9L106.4 46.9C106.446 46.47 106.647 46.0716 106.965 45.779C107.284 45.4864 107.698 45.3197 108.13 45.31H109.13C109.334 45.3059 109.536 45.3453 109.723 45.4257C109.91 45.5061 110.078 45.6256 110.215 45.7761C110.353 45.9267 110.456 46.1048 110.519 46.2987C110.582 46.4925 110.603 46.6975 110.58 46.9L110.5 47.9C110.454 48.3316 110.251 48.7314 109.931 49.0243C109.61 49.3171 109.194 49.4827 108.76 49.49Z" fill="white"/>
<path d="M115.03 49.49H114.03C113.826 49.4941 113.624 49.4547 113.437 49.3743C113.249 49.2939 113.081 49.1744 112.944 49.0239C112.807 48.8733 112.703 48.6951 112.641 48.5013C112.578 48.3075 112.557 48.1025 112.58 47.9L112.67 46.9C112.714 46.4709 112.912 46.0726 113.229 45.7798C113.546 45.487 113.959 45.3199 114.39 45.31H115.39C115.594 45.3059 115.796 45.3453 115.983 45.4257C116.17 45.5061 116.338 45.6256 116.475 45.7761C116.613 45.9267 116.716 46.1048 116.779 46.2987C116.842 46.4925 116.863 46.6975 116.84 46.9L116.75 47.9C116.708 48.3299 116.51 48.7295 116.193 49.0227C115.876 49.3159 115.462 49.4822 115.03 49.49Z" fill="white"/>
<path d="M273.38 177.95L273.25 179.38H268.25L268.35 178.25L270.96 176.01C271.51 175.53 271.61 175.24 271.64 175.01C271.64 174.59 271.42 174.35 270.87 174.35C270.635 174.349 270.403 174.405 270.194 174.513C269.985 174.621 269.805 174.778 269.67 174.97L268.4 174.22C268.711 173.783 269.127 173.432 269.609 173.198C270.091 172.964 270.625 172.854 271.16 172.88C272.63 172.88 273.58 173.64 273.48 174.83C273.424 175.235 273.282 175.623 273.063 175.968C272.844 176.313 272.553 176.607 272.21 176.83L270.91 177.95H273.38Z" fill="#263238"/>
<path d="M278.89 177.38C278.79 178.47 277.84 179.51 275.89 179.51C275.037 179.528 274.196 179.31 273.46 178.88L274.24 177.52C274.75 177.866 275.353 178.051 275.97 178.05C276.58 178.05 276.97 177.81 277.04 177.38C277.11 176.95 276.81 176.76 276.12 176.76H275.36L275.46 175.62L276.71 174.38H274.18L274.31 172.98H278.93L278.83 174.12L277.38 175.54C277.601 175.559 277.816 175.621 278.013 175.725C278.209 175.828 278.383 175.969 278.524 176.141C278.664 176.313 278.769 176.511 278.832 176.723C278.895 176.936 278.915 177.159 278.89 177.38Z" fill="#263238"/>
<path d="M322.43 98.16H295.41L295.5 97.16H322.52L322.43 98.16Z" fill="white"/>
<path d="M308.52 102.68H295.01L295.1 101.68H308.61L308.52 102.68Z" fill="white"/>
<path d="M315.94 172.32H288.92L289.01 171.32H316.03L315.94 172.32Z" fill="white"/>
<path d="M302.04 176.84H288.53L288.61 175.84H302.12L302.04 176.84Z" fill="white"/>
<path d="M319.21 135H292.19L292.27 134H319.29L319.21 135Z" fill="white"/>
<path d="M305.3 139.51H291.79L291.88 138.51H305.39L305.3 139.51Z" fill="white"/>
<path d="M322.69 90.92C323.28 89.5 322.9 88.47 324.3 88.47C325.7 88.47 324.99 89.47 325.49 90.92C325.75 91.63 324.81 91.5 324.04 91.5C323.27 91.5 322.38 91.65 322.69 90.92Z" fill="white"/>
<path d="M324.26 88.93C324.201 88.9302 324.143 88.9182 324.089 88.8946C324.035 88.8711 323.987 88.8365 323.948 88.7932C323.908 88.7498 323.878 88.6987 323.86 88.643C323.841 88.5873 323.834 88.5284 323.84 88.47C323.854 88.3461 323.913 88.2315 324.004 88.147C324.096 88.0626 324.215 88.0139 324.34 88.01C324.399 88.0081 324.458 88.019 324.512 88.042C324.567 88.0651 324.616 88.0996 324.656 88.1433C324.696 88.187 324.726 88.2388 324.744 88.2952C324.761 88.3516 324.767 88.4112 324.76 88.47C324.75 88.5955 324.693 88.7127 324.6 88.7979C324.507 88.8832 324.386 88.9304 324.26 88.93ZM324.32 88.25C324.26 88.2519 324.203 88.2752 324.159 88.3156C324.115 88.3559 324.087 88.4107 324.08 88.47C324.077 88.4979 324.08 88.526 324.089 88.5527C324.098 88.5793 324.112 88.6038 324.131 88.6245C324.15 88.6453 324.173 88.6618 324.198 88.6731C324.224 88.6844 324.252 88.6901 324.28 88.69C324.339 88.688 324.396 88.6648 324.441 88.6244C324.485 88.584 324.513 88.5293 324.52 88.47C324.523 88.4421 324.52 88.4139 324.511 88.3873C324.502 88.3607 324.488 88.3362 324.469 88.3154C324.45 88.2947 324.427 88.2781 324.401 88.2669C324.376 88.2556 324.348 88.2498 324.32 88.25Z" fill="white"/>
<path d="M319.46 128.17C320.05 126.75 319.67 125.73 321.07 125.73C322.47 125.73 321.76 126.73 322.26 128.17C322.52 128.88 321.58 128.76 320.81 128.76C320.04 128.76 319.12 128.91 319.46 128.17Z" fill="white"/>
<path d="M321 126.19C320.941 126.19 320.883 126.178 320.83 126.155C320.776 126.131 320.728 126.097 320.688 126.053C320.648 126.01 320.618 125.959 320.6 125.903C320.581 125.847 320.574 125.788 320.58 125.73C320.592 125.605 320.65 125.489 320.742 125.405C320.835 125.32 320.955 125.272 321.08 125.27C321.139 125.268 321.198 125.279 321.253 125.302C321.307 125.325 321.356 125.36 321.396 125.403C321.436 125.447 321.466 125.499 321.484 125.555C321.502 125.612 321.507 125.671 321.5 125.73C321.488 125.855 321.43 125.971 321.338 126.055C321.246 126.14 321.125 126.188 321 126.19ZM321.06 125.51C321 125.512 320.943 125.535 320.899 125.576C320.855 125.616 320.827 125.671 320.82 125.73C320.817 125.758 320.82 125.786 320.829 125.813C320.838 125.839 320.852 125.864 320.871 125.885C320.89 125.905 320.913 125.922 320.939 125.933C320.964 125.944 320.992 125.95 321.02 125.95C321.08 125.948 321.137 125.925 321.181 125.884C321.225 125.844 321.253 125.789 321.26 125.73C321.263 125.702 321.26 125.674 321.251 125.647C321.242 125.621 321.228 125.596 321.209 125.575C321.19 125.555 321.167 125.538 321.141 125.527C321.116 125.516 321.088 125.51 321.06 125.51Z" fill="white"/>
<path d="M316.17 165.43C316.76 164.01 316.38 162.98 317.78 162.98C319.18 162.98 318.47 163.98 318.97 165.43C319.23 166.14 318.29 166.01 317.52 166.01C316.75 166.01 315.86 166.16 316.17 165.43Z" fill="white"/>
<path d="M317.74 163.44C317.681 163.44 317.623 163.428 317.569 163.405C317.516 163.381 317.467 163.347 317.428 163.303C317.388 163.26 317.358 163.209 317.34 163.153C317.321 163.097 317.314 163.038 317.32 162.98C317.334 162.856 317.392 162.741 317.484 162.657C317.576 162.573 317.695 162.524 317.82 162.52C317.879 162.518 317.938 162.529 317.992 162.552C318.047 162.575 318.096 162.61 318.136 162.653C318.176 162.697 318.206 162.749 318.223 162.805C318.241 162.862 318.247 162.921 318.24 162.98C318.23 163.106 318.173 163.223 318.08 163.308C317.987 163.393 317.866 163.44 317.74 163.44ZM317.8 162.76C317.74 162.762 317.683 162.785 317.639 162.826C317.595 162.866 317.567 162.921 317.56 162.98C317.557 163.008 317.56 163.036 317.569 163.063C317.578 163.089 317.592 163.114 317.611 163.135C317.63 163.155 317.653 163.172 317.678 163.183C317.704 163.194 317.732 163.2 317.76 163.2C317.82 163.2 317.878 163.178 317.923 163.137C317.967 163.096 317.995 163.04 318 162.98C318.003 162.952 317.999 162.924 317.991 162.897C317.982 162.871 317.968 162.846 317.949 162.825C317.93 162.805 317.907 162.788 317.881 162.777C317.856 162.766 317.828 162.76 317.8 162.76Z" fill="white"/>
<path opacity="0.2" d="M112.31 23.3101L60.4497 217.24H77.8897L129.18 23.3101H112.31Z" fill="white"/>
<path opacity="0.2" d="M139.22 23.3101L87.3696 217.24H121.97L173.25 23.3101H139.22Z" fill="white"/>
<path opacity="0.4" d="M79.2196 118.258C80.1597 114.275 77.6929 110.284 73.7099 109.344C69.7269 108.404 65.736 110.871 64.7959 114.854C63.8558 118.837 66.3226 122.828 70.3056 123.768C74.2886 124.708 78.2795 122.241 79.2196 118.258Z" fill="white"/>
<path opacity="0.4" d="M344.89 116.57C344.89 117.304 344.672 118.022 344.264 118.632C343.856 119.243 343.276 119.718 342.597 119.999C341.919 120.279 341.172 120.352 340.452 120.208C339.732 120.064 339.071 119.71 338.553 119.19C338.034 118.67 337.682 118.008 337.54 117.288C337.398 116.567 337.473 115.821 337.755 115.143C338.037 114.466 338.514 113.887 339.126 113.48C339.737 113.074 340.456 112.858 341.19 112.86C341.676 112.86 342.158 112.956 342.608 113.143C343.058 113.329 343.466 113.603 343.81 113.947C344.153 114.292 344.426 114.701 344.611 115.151C344.796 115.601 344.891 116.083 344.89 116.57Z" fill="white"/>
<path d="M293.16 50.9001C293.123 51.2539 292.959 51.5823 292.697 51.8235C292.436 52.0647 292.095 52.2022 291.74 52.2101C291.572 52.2125 291.406 52.1793 291.253 52.1127C291.099 52.046 290.962 51.9475 290.849 51.8236C290.737 51.6997 290.652 51.5533 290.6 51.394C290.548 51.2348 290.531 51.0664 290.55 50.9001C290.586 50.5472 290.751 50.22 291.013 49.9804C291.275 49.7408 291.615 49.6055 291.97 49.6C292.137 49.5962 292.302 49.628 292.456 49.6935C292.609 49.759 292.747 49.8566 292.86 49.9797C292.973 50.1029 293.058 50.2487 293.109 50.4075C293.161 50.5662 293.178 50.7341 293.16 50.9001Z" fill="white"/>
<path d="M294.6 47.0101L293.97 48.0801C293.248 47.768 292.467 47.6145 291.68 47.6301C290.968 47.6283 290.264 47.7855 289.62 48.0901L289.11 47.0101C289.97 46.6109 290.907 46.4041 291.855 46.4041C292.803 46.4041 293.74 46.6109 294.6 47.0101Z" fill="white"/>
<path d="M296.37 44.01L295.73 45.09C294.533 44.5278 293.222 44.2538 291.9 44.29C290.62 44.2909 289.358 44.5851 288.21 45.15L287.71 44.09C289.046 43.4261 290.518 43.0837 292.01 43.09C293.516 43.0436 295.011 43.3591 296.37 44.01Z" fill="white"/>
<path d="M298.15 40.93L297.51 42.01C295.835 41.1908 293.982 40.8057 292.12 40.89C290.266 40.8732 288.433 41.2911 286.77 42.11L286.28 41.06C288.129 40.1419 290.166 39.6661 292.23 39.67C294.277 39.5958 296.31 40.0287 298.15 40.93Z" fill="white"/>
<path d="M315.82 52.42C314.999 52.4328 314.184 52.2715 313.43 51.9465C312.676 51.6215 311.999 51.1402 311.444 50.5345C310.889 49.9288 310.469 49.2123 310.212 48.4324C309.954 47.6525 309.865 46.8269 309.95 46.01C310.131 44.2683 310.942 42.6529 312.232 41.4684C313.521 40.2839 315.199 39.6122 316.95 39.58V39.86C315.272 39.8833 313.661 40.5228 312.424 41.6568C311.186 42.7909 310.409 44.3402 310.24 46.01C310.155 46.7927 310.237 47.5845 310.481 48.333C310.726 49.0814 311.127 49.7694 311.657 50.351C312.188 50.9327 312.836 51.3948 313.559 51.7067C314.282 52.0186 315.063 52.1731 315.85 52.16L315.82 52.42Z" fill="white"/>
<path d="M316.05 52.6701H315.8C314.943 52.6899 314.092 52.5259 313.304 52.1891C312.515 51.8523 311.809 51.3505 311.231 50.7176C310.653 50.0846 310.217 49.3352 309.953 48.5197C309.689 47.7042 309.603 46.8417 309.7 45.9901C309.89 44.182 310.733 42.5054 312.072 41.2754C313.411 40.0453 315.152 39.3464 316.97 39.3101H317.22L317.15 40.0901H316.9C315.287 40.1141 313.739 40.7307 312.552 41.8225C311.364 42.9142 310.619 44.4048 310.46 46.0101C310.378 46.7609 310.456 47.5207 310.69 48.2389C310.924 48.9571 311.308 49.6173 311.817 50.1754C312.326 50.7336 312.948 51.177 313.642 51.4761C314.335 51.7751 315.085 51.9231 315.84 51.9101H316.09L316.05 52.6701Z" fill="white"/>
<path d="M315.82 52.42V52.14C317.495 52.1172 319.103 51.4804 320.34 50.3505C321.577 49.2206 322.356 47.6761 322.53 46.01C322.615 45.2273 322.533 44.4354 322.288 43.6869C322.044 42.9385 321.643 42.2506 321.113 41.6689C320.582 41.0872 319.934 40.6251 319.211 40.3132C318.488 40.0013 317.707 39.8468 316.92 39.86V39.58C317.746 39.5606 318.566 39.7181 319.326 40.042C320.085 40.3658 320.767 40.8484 321.325 41.4574C321.883 42.0665 322.304 42.7878 322.56 43.573C322.816 44.3582 322.901 45.1891 322.81 46.01C322.627 47.7472 321.816 49.3576 320.528 50.5382C319.241 51.7188 317.566 52.3881 315.82 52.42Z" fill="white"/>
<path d="M315.8 52.67H315.55L315.62 51.89H315.87C317.475 51.8593 319.012 51.2422 320.193 50.1552C321.374 49.0683 322.116 47.5867 322.28 45.99C322.362 45.2392 322.284 44.4794 322.05 43.7612C321.816 43.0429 321.432 42.3828 320.923 41.8247C320.414 41.2665 319.792 40.8231 319.098 40.524C318.404 40.2249 317.655 40.077 316.9 40.09H316.65L316.72 39.31H316.97C317.828 39.2913 318.68 39.4568 319.468 39.7954C320.257 40.134 320.964 40.6378 321.541 41.2729C322.118 41.9079 322.552 42.6594 322.814 43.4766C323.076 44.2938 323.16 45.1577 323.06 46.01C322.87 47.8145 322.027 49.4873 320.69 50.7139C319.353 51.9404 317.614 52.6361 315.8 52.67Z" fill="white"/>
<path d="M319.67 46.01H319.39C319.57 43.93 318.76 41.14 316.85 39.84L317.02 39.6C319.01 40.94 319.86 43.83 319.67 46.01Z" fill="white"/>
<path d="M319.9 46.24H319.12V45.99C319.29 43.99 318.51 41.28 316.67 39.99L316.48 39.86L316.96 39.2L317.15 39.33C319.21 40.73 320.15 43.72 319.9 45.95V46.24Z" fill="white"/>
<path d="M315.92 52.21L315.78 51.97C316.792 51.2636 317.64 50.3463 318.265 49.2813C318.89 48.2163 319.277 47.0287 319.4 45.8H319.69C319.559 47.0766 319.154 48.31 318.504 49.4161C317.853 50.5223 316.972 51.4752 315.92 52.21Z" fill="white"/>
<path d="M315.81 52.55L315.45 51.89L315.67 51.76C316.65 51.072 317.469 50.179 318.07 49.143C318.671 48.1069 319.039 46.9526 319.15 45.76V45.51H319.93V45.76C319.793 47.08 319.373 48.3549 318.699 49.4975C318.024 50.6401 317.11 51.6234 316.02 52.38L315.81 52.55Z" fill="white"/>
<path d="M313.38 46.01H313.1C313.229 44.7329 313.632 43.4988 314.283 42.3924C314.934 41.2859 315.816 40.3334 316.87 39.6L317 39.84C315.989 40.5484 315.142 41.4661 314.518 42.5307C313.893 43.5954 313.505 44.782 313.38 46.01Z" fill="white"/>
<path d="M313.61 46.24H312.83V45.99C312.965 44.6707 313.383 43.396 314.056 42.2534C314.729 41.1107 315.641 40.1271 316.73 39.37L316.95 39.24L317.32 39.9L317.1 40.03C316.119 40.7179 315.299 41.6107 314.696 42.6466C314.093 43.6825 313.723 44.8369 313.61 46.03V46.24Z" fill="white"/>
<path d="M315.76 52.21C313.76 50.86 312.93 47.96 313.11 45.8H313.4C313.22 47.88 314.03 50.67 315.94 51.97L315.76 52.21Z" fill="white"/>
<path d="M315.81 52.55L315.61 52.4201C313.55 51.0201 312.67 48.03 312.86 45.8V45.55H313.64V45.8C313.46 47.8 314.24 50.51 316.08 51.8L316.28 51.93L315.81 52.55Z" fill="white"/>
<path d="M315.98 52.2799H315.69L316.79 39.7H317.07L315.98 52.2799Z" fill="white"/>
<path d="M316.2 52.5299H315.42L316.56 39.45H317.35L316.2 52.5299Z" fill="white"/>
<path d="M321.99 42.78H311.34L311.37 42.5H322.01L321.99 42.78Z" fill="white"/>
<path d="M322.22 43.03H311.07L311.14 42.25H322.29L322.22 43.03Z" fill="white"/>
<path d="M322.65 46.24H310.07L310.1 45.95H322.67L322.65 46.24Z" fill="white"/>
<path d="M322.88 46.49H309.8L309.87 45.7H322.94L322.88 46.49Z" fill="white"/>
<path d="M321.24 49.69H310.88L310.9 49.41H321.27L321.24 49.69Z" fill="white"/>
<path d="M321.47 49.94H310.61L310.67 49.16H321.54L321.47 49.94Z" fill="white"/>
</g>
<defs>
<clipPath id="clip0">
<rect width="400.79" height="269.66" fill="white"/>
</clipPath>
</defs>
</svg>
