<svg width="20" height="21" viewBox="0 0 20 21" fill="none" xmlns="http://www.w3.org/2000/svg">
<path d="M14.4205 6.95106C14.7256 7.26179 14.7256 7.76547 14.4205 8.07604L9.17938 13.4126C8.87421 13.7231 8.37967 13.7231 8.07449 13.4126L5.57953 10.8721C5.27435 10.5615 5.27435 10.0578 5.57953 9.74727C5.88455 9.43655 6.37924 9.43655 6.68427 9.74727L8.62686 11.7252L13.3156 6.95106C13.6208 6.64049 14.1154 6.64049 14.4205 6.95106ZM20 10.1818C20 15.8098 15.5267 20.3636 10 20.3636C4.4725 20.3636 0 15.809 0 10.1818C0 4.55382 4.47327 0 10 0C15.5275 0 20 4.5546 20 10.1818ZM18.4375 10.1818C18.4375 5.43317 14.6632 1.59091 10 1.59091C5.33615 1.59091 1.5625 5.43379 1.5625 10.1818C1.5625 14.9305 5.33676 18.7727 10 18.7727C14.6638 18.7727 18.4375 14.9298 18.4375 10.1818Z" fill="#73B471"/>
</svg>
