<svg width="55" height="56" viewBox="0 0 55 56" fill="none" xmlns="http://www.w3.org/2000/svg">
<path d="M39.6563 19.1154C40.4955 19.9699 40.4955 21.355 39.6563 22.2091L25.2433 36.8846C24.4041 37.7386 23.0441 37.7386 22.2049 36.8846L15.3437 29.8983C14.5045 29.0442 14.5045 27.6591 15.3437 26.805C16.1825 25.9505 17.5429 25.9505 18.3817 26.805L23.7239 32.2443L36.6179 19.1154C37.4571 18.2614 38.8175 18.2614 39.6563 19.1154ZM55 28C55 43.477 42.6985 56 27.5 56C12.2994 56 0 43.4749 0 28C0 12.523 12.3015 0 27.5 0C42.7006 0 55 12.5251 55 28ZM50.7031 28C50.7031 14.9412 40.3239 4.375 27.5 4.375C14.6744 4.375 4.29688 14.9429 4.29688 28C4.29688 41.0588 14.6761 51.625 27.5 51.625C40.3256 51.625 50.7031 41.0571 50.7031 28Z" fill="#73B471"/>
</svg>
