<?xml version="1.0" encoding="utf-8"?>
<!-- Generator: Adobe Illustrator 24.1.2, SVG Export Plug-In . SVG Version: 6.00 Build 0)  -->
<svg version="1.1" id="Capa_1" xmlns="http://www.w3.org/2000/svg" xmlns:xlink="http://www.w3.org/1999/xlink" x="0px" y="0px"
	 viewBox="0 0 512 512" style="enable-background:new 0 0 512 512;" xml:space="preserve">
<style type="text/css">
	.st0{fill:#C60000;}
</style>
<g>
	<path class="st0" d="M507.3,429.9l-221-382.7c-13.5-23.3-47.1-23.3-60.6,0L4.7,429.9c-13.5,23.3,3.3,52.5,30.3,52.5H477
		C503.9,482.3,520.7,453.2,507.3,429.9L507.3,429.9z M477,452.4H35c-3.8,0-6.3-4.1-4.3-7.5l221-382.7c1.9-3.3,6.7-3.4,8.7,0
		l221,382.7C483.2,448.2,480.8,452.4,477,452.4L477,452.4z"/>
	<ellipse class="st0" cx="256.2" cy="393.7" rx="18.1" ry="18.1"/>
	<path class="st0" d="M256.2,349.2c8.3,0,15-6.7,15-15V162.8c0-8.3-6.7-15-15-15s-15,6.7-15,15v171.4
		C241.2,342.5,247.9,349.2,256.2,349.2z"/>
</g>
</svg>
